<?xml version="1.0" encoding="utf-8"?>
<!-- Generator: Adobe Illustrator 25.4.1, SVG Export Plug-In . SVG Version: 6.00 Build 0)  -->
<svg version="1.1" id="Ebene_1" xmlns="http://www.w3.org/2000/svg" xmlns:xlink="http://www.w3.org/1999/xlink" x="0px" y="0px"
	 viewBox="0 0 283.5 164.4" style="enable-background:new 0 0 283.5 164.4;" xml:space="preserve">
<style type="text/css">
	.st0{fill:#FFFFFF;}
	.st1{fill:#009DDF;}
</style>
<g>
	<path class="st1" d="M231.3,119.8c2.5,0,3.8-1.1,3.8-2.8c0-1.6-1.1-2.5-2.9-2.8l-1.3-0.3c-1-0.2-1.4-0.6-1.4-1.2
		c0-0.8,0.6-1.2,1.8-1.2c1.3,0,1.9,0.6,2,1.5h1.6c0-1.8-1.5-3-3.6-3c-2.2,0-3.5,1.1-3.5,2.7c0,1.6,1.1,2.3,2.7,2.7l1.4,0.3
		c1,0.2,1.5,0.6,1.5,1.3c0,0.9-0.7,1.4-2.1,1.4c-1.3,0-2.1-0.6-2.2-1.7h-1.6C227.6,118.6,228.9,119.8,231.3,119.8 M220.5,119.8
		c2.3,0,3.8-1.4,4-3.4h-1.6c-0.2,1.1-0.9,1.9-2.4,1.9c-2,0-2.8-1.5-2.8-3.4c0-1.9,0.8-3.4,2.8-3.4c1.5,0,2.2,0.9,2.4,2h1.6
		c-0.2-2-1.6-3.5-4-3.5c-2.9,0-4.4,2-4.4,4.9C216.1,117.8,217.6,119.8,220.5,119.8 M210.7,119.7h1.6v-9.6h-1.6V119.7z M202.8,119.7
		h1.6v-8.1h2.9v-1.4h-7.4v1.4h2.9V119.7z M193.3,119.8c2.5,0,3.8-1.1,3.8-2.8c0-1.6-1.1-2.5-2.9-2.8l-1.3-0.3
		c-1-0.2-1.4-0.6-1.4-1.2c0-0.8,0.6-1.2,1.8-1.2c1.3,0,1.9,0.6,2,1.5h1.6c0-1.8-1.5-3-3.6-3c-2.2,0-3.5,1.1-3.5,2.7
		c0,1.6,1.1,2.3,2.7,2.7l1.4,0.3c1,0.2,1.5,0.6,1.5,1.3c0,0.9-0.7,1.4-2.1,1.4c-1.3,0-2.1-0.6-2.2-1.7h-1.6
		C189.6,118.6,190.9,119.8,193.3,119.8 M182,118.4c-2,0-2.8-1.5-2.8-3.4c0-1.9,0.8-3.4,2.8-3.4c2,0,2.8,1.5,2.8,3.4
		C184.8,116.9,184,118.4,182,118.4 M182,119.8c3,0,4.4-2.2,4.4-4.9c0-2.7-1.4-4.9-4.4-4.9c-3,0-4.4,2.2-4.4,4.9
		C177.6,117.7,179,119.8,182,119.8 M166.1,119.7h1.6v-7h0.1l4.3,7h1.8v-9.6h-1.6v7h-0.1l-4.3-7h-1.8V119.7z M158.2,119.8
		c2.5,0,4.2-1.7,4.2-4.3v-0.9h-3.9v1.4h2.3c-0.1,1.3-0.9,2.3-2.5,2.3c-2,0-2.7-1.5-2.7-3.4c0-1.9,0.8-3.5,2.7-3.5
		c1.5,0,2.3,0.8,2.4,1.8h1.6c-0.2-1.9-1.7-3.3-4-3.3c-2.9,0-4.4,2.1-4.4,4.9C153.8,117.8,155.3,119.8,158.2,119.8 M145.3,116.1
		l1.4-4.3h0.1l1.4,4.3H145.3z M147.8,110.2h-2l-3.4,9.4v0.1h1.7l0.8-2.2h3.9l0.8,2.2h1.7v-0.1L147.8,110.2z M137.3,119.7h1.6v-9.6
		h-1.6V119.7z M127.3,118.3v-6.7h1.6c2,0,3,1.4,3,3.3c0,2-1,3.3-3,3.3H127.3z M125.8,119.7h3.2c2.9,0,4.6-2.1,4.6-4.8
		c0-2.9-1.8-4.8-4.6-4.8h-3.2V119.7z M111.5,119.7h1.6v-3.9l3.5-5.5v-0.1h-1.8l-2.4,4.1h-0.1l-2.4-4.1H108v0.1l3.5,5.5V119.7z
		 M99.9,111.6h2.3c1.1,0,1.6,0.6,1.6,1.5c0,0.9-0.5,1.5-1.6,1.5h-2.3V111.6z M103.5,115.9c1.2-0.4,2-1.4,2-2.8
		c0-1.6-1.1-2.9-3.1-2.9h-4v9.6h1.6v-3.6h1.9l2.3,3.6h1.8v-0.1L103.5,115.9z M88,119.7h6.4v-1.4h-4.8v-2.8h4.4v-1.4h-4.4v-2.5h4.8
		v-1.4H88V119.7z M80.1,119.7h1.6v-8.1h2.9v-1.4h-7.4v1.4h2.9V119.7z M70.1,119.7h1.6v-8.1h2.9v-1.4h-7.4v1.4h2.9V119.7z
		 M59.6,116.1l1.4-4.3h0.1l1.4,4.3H59.6z M62.1,110.2h-2l-3.4,9.4v0.1h1.7l0.8-2.2H63l0.8,2.2h1.7v-0.1L62.1,110.2z M48.1,118.3
		v-2.8h2.5c1.1,0,1.6,0.6,1.6,1.4c0,0.9-0.6,1.4-1.6,1.4H48.1z M48.1,114.1v-2.5h2.4c0.9,0,1.4,0.5,1.4,1.2c0,0.9-0.6,1.3-1.5,1.3
		H48.1z M46.5,119.7h4.3c1.9,0,3-1,3-2.8c0-1.3-0.7-2-1.4-2.3v-0.1c0.6-0.3,1.1-0.9,1.1-2c0-1.6-1.2-2.5-2.8-2.5h-4.2V119.7z"/>
	<path class="st1" d="M70.5,45.1L47,85.7c-0.6,1.1,0.2,2.4,1.4,2.4l7.1,0c0.9,0,1.7-0.5,2.1-1.2l19.2-33.3c0.4-0.8,0.4-1.7,0-2.4
		l-3.6-6.1c-0.3-0.5-0.8-0.8-1.4-0.8C71.3,44.3,70.8,44.5,70.5,45.1 M78.8,59.5L63.7,85.7c-0.6,1.1,0.2,2.4,1.4,2.4h7.1
		c0.9,0,1.7-0.5,2.1-1.2l10.9-18.8c0.4-0.8,0.4-1.7,0-2.4l-3.5-6.1c-0.3-0.5-0.8-0.8-1.4-0.8C79.7,58.7,79.1,59,78.8,59.5 M87.2,74
		l-6.8,11.8c-0.6,1.1,0.2,2.4,1.4,2.4h7.1c0.9,0,1.7-0.5,2.1-1.2l2.5-4.4c0.4-0.8,0.4-1.7,0-2.4L89.9,74c-0.3-0.5-0.8-0.8-1.4-0.8
		C88,73.2,87.5,73.4,87.2,74"/>
	<path class="st1" d="M220.8,67.5c-1.3,0.6-2.5,1.3-3.4,2.3c-1,1-1.7,2.1-2.3,3.5c-0.6,1.3-0.8,2.8-0.8,4.4c0,1.5,0.3,3,0.8,4.3
		c0.6,1.3,1.3,2.5,2.3,3.5c1,1,2.1,1.8,3.4,2.3c1.3,0.6,2.8,0.8,4.3,0.8s3-0.3,4.3-0.8c1.3-0.6,2.5-1.3,3.4-2.3c1-1,1.7-2.1,2.3-3.5
		c0.6-1.3,0.8-2.8,0.8-4.3c0-1.6-0.3-3-0.8-4.4c-0.6-1.3-1.3-2.5-2.3-3.5c-1-1-2.1-1.8-3.4-2.3c-1.3-0.6-2.8-0.8-4.3-0.8
		S222.2,66.9,220.8,67.5 M222.5,83.9c-0.8-0.4-1.4-0.9-2-1.5c-0.5-0.6-0.9-1.4-1.2-2.2c-0.3-0.8-0.4-1.7-0.4-2.7s0.1-1.8,0.4-2.7
		c0.3-0.8,0.7-1.6,1.2-2.2c0.5-0.6,1.2-1.1,2-1.5c0.8-0.4,1.6-0.5,2.6-0.5s1.8,0.2,2.6,0.5c0.8,0.4,1.4,0.9,1.9,1.5
		c0.5,0.6,0.9,1.3,1.2,2.2c0.3,0.8,0.4,1.7,0.4,2.7s-0.1,1.8-0.4,2.7c-0.3,0.8-0.7,1.6-1.2,2.2c-0.5,0.6-1.2,1.1-1.9,1.5
		c-0.8,0.4-1.6,0.6-2.6,0.6S223.3,84.3,222.5,83.9 M195.8,67.5c-1.3,0.6-2.5,1.3-3.4,2.3c-1,1-1.7,2.1-2.3,3.5
		c-0.6,1.3-0.8,2.8-0.8,4.4c0,1.5,0.3,3,0.8,4.3c0.6,1.3,1.3,2.5,2.3,3.5c1,1,2.1,1.8,3.4,2.3c1.3,0.6,2.8,0.8,4.3,0.8
		c1.5,0,3-0.3,4.3-0.8c1.3-0.6,2.5-1.3,3.4-2.3c1-1,1.7-2.1,2.3-3.5c0.6-1.3,0.8-2.8,0.8-4.3c0-1.6-0.3-3-0.8-4.4
		c-0.6-1.3-1.3-2.5-2.3-3.5c-1-1-2.1-1.8-3.4-2.3c-1.3-0.6-2.8-0.8-4.3-0.8C198.5,66.6,197.1,66.9,195.8,67.5 M197.5,83.9
		c-0.8-0.4-1.4-0.9-2-1.5c-0.5-0.6-0.9-1.4-1.2-2.2c-0.3-0.8-0.4-1.7-0.4-2.7s0.1-1.8,0.4-2.7c0.3-0.8,0.7-1.6,1.2-2.2
		c0.5-0.6,1.2-1.1,2-1.5c0.8-0.4,1.6-0.5,2.6-0.5c1,0,1.8,0.2,2.6,0.5c0.8,0.4,1.4,0.9,1.9,1.5c0.5,0.6,0.9,1.3,1.2,2.2
		c0.3,0.8,0.4,1.7,0.4,2.7s-0.1,1.8-0.4,2.7c-0.3,0.8-0.7,1.6-1.2,2.2c-0.5,0.6-1.2,1.1-1.9,1.5c-0.8,0.4-1.6,0.6-2.6,0.6
		C199.1,84.5,198.2,84.3,197.5,83.9 M172.4,67.2c-0.1,0-0.2,0.1-0.2,0.2v20.4c0,0.1,0.1,0.2,0.2,0.2h14.7c0.1,0,0.2-0.1,0.2-0.2
		v-3.7c0-0.1-0.1-0.2-0.2-0.2h-10c-0.1,0-0.2-0.1-0.2-0.2V67.5c0-0.1-0.1-0.2-0.2-0.2H172.4z M161.9,67.2c-0.1,0-0.2,0.1-0.2,0.2
		v20.4c0,0.1,0.1,0.2,0.2,0.2h4.2c0.1,0,0.2-0.1,0.2-0.2V67.5c0-0.1-0.1-0.2-0.2-0.2H161.9z M152.8,67.2c-0.1,0-0.2,0-0.2,0.1
		l-9.2,15.9c-0.1,0.2-0.3,0.2-0.4,0l-9.3-15.9c0-0.1-0.1-0.1-0.2-0.1h-4.7c-0.2,0-0.3,0.2-0.2,0.4L140,87.5c0.2,0.4,0.6,0.6,1.1,0.6
		h3.8c0.4,0,0.9-0.2,1.1-0.6l11.5-19.9c0.1-0.2,0-0.4-0.2-0.4H152.8z M116.8,67.2c-0.4,0-0.9,0.2-1.1,0.6l-11.5,19.9
		c-0.1,0.2,0,0.4,0.2,0.4h4.5c0.1,0,0.2,0,0.2-0.1l9.2-15.9c0.1-0.2,0.3-0.2,0.4,0L128,88c0,0.1,0.1,0.1,0.2,0.1h4.7
		c0.2,0,0.3-0.2,0.2-0.4l-11.5-19.9c-0.2-0.4-0.6-0.6-1.1-0.6H116.8z"/>
</g>
</svg>
